/* XPM */
static char *_76d44f7b07249eaf994899e6650aa6cu4Cpk4b3Wu2e9kVk[] = {
/* columns rows colors chars-per-pixel */
"132 24 11 1 ",
"  c None",
". c #3D2C12",
"X c #352E3F",
"o c #24404D",
"O c #76746D",
"+ c #871F23",
"@ c #AA272C",
"# c #DFB25B",
"$ c #B6B2A8",
"% c #E5E3E0",
"& c #FFFFF2",
/* pixels */
"                                                                                                                                    ",
"                                                   @@@                                                               @@@            ",
"      @@@@                  @@@@                 @@@@@@                 @@@@                  @@@@                 @@@@@@           ",
"     @@@@@@                @@@@@@                @@@@@@@               @@@@@@                @@@@@@                @@@@@@@          ",
"     @@@@@@@              @@@@@@@@              @@@+%%%%               @@@@@@@              @@@@@@@@              @@@+%%%%          ",
"    @@@+%%%%              @@@+%%%%              @@+%%$$$$             @@@+%%%%              @@@+%%%%              @@+%%$$$$         ",
"    @@+%%$$$$             @@+%%$$$$             @@+$$$$$$$            @@+%%$$$$             @@+%%$$$$             @@+$$$$$$$        ",
"    @@+$$$$$$$            @@+$$$$$$$            @@$%$$XX$$            @@+$$$$$$$            @@+$$$$$$$            @@$%$$XX$$        ",
"   @@@$%$$XX$$            @@$%$$XX$$            @ $$$$$XX            @@@$%$$XX$$            @@$%$$XX$$            @ $$$$$XX         ",
"   @@ $$$$$XX###          @@$$$$$XX             @ $$O$$$X            @@ $$$$$XX###          @@$$$$$XX             @ $$O$$$X         ",
"   @  $$O$$$#OOO##         @$$O$$$X###             OOO$$O###         @  $$O$$$#OOO##         @$$O$$$X###             OOO$$O###      ",
"       OOO$#OOOO$o#          OOO$$#OOO##       &&&$$XoO$#OOO##           OOO$#OOOO$o#          OOO$$#OOO##       &&&$$XoO$#OOO##    ",
"   &&&$$XoO#OO$$$o#      &&&$$XoO#OOOO$o#     &&&&&$OOO#OOOO$o#      &&&$$XoO#OO$$$o#      &&&$$XoO#OOOO$o#     &&&&&$OOO#OOOO$o#   ",
"  &&&&&$OOO#OO$$oo$#    &&&&&$OOO#OO$$$o#     ..&&&$$$$#OO$$$o#     &&&&&$OOO#OO$$oo$#    &&&&&$OOO#OO$$$o#     ..&&&$$$$#OO$$$o#   ",
" X..X&&$$$$&#$$oo$$#    ..&&&$$$$#OO$$oo$#   X..XO$$$$$#OO$$oo$#   X..X&&$$$$&#$$oo$$#    ..&&&$$$$#OO$$oo$#   X..XO$$$$$#OO$$oo$#  ",
" .XX$$&$$$$O#ooo$$X#   X..XO$$$$$O#$$oo$$#   .XX$$&OOOO+#$$oo$$#   .XX$$&$$$$O#ooo$$X#   X..XO$$$$$O#$$oo$$#   .XX$$&OOOO+#$$oo$$#  ",
"  .X&&&&&OO+.##$$X#    .XX$$&OOOO+#ooo$$X#    .X&&&&&@+ #ooo$$X#    .X&&&&&OO+.##$$X#    .XX$$&OOOO+#ooo$$X#    .X&&&&&@+ #ooo$$X#  ",
"    X+&&&&&    ###      .X&&&&&@+  ##$$X#       OX&&&&&$ ##$$X#       X+&&&&&    ###      .X&&&&&@+  ##$$X#       O@&&&&&$ ##$$X#   ",
"    OX@@&&&&&             O@&&&&&$   ###       o$O@@&&&&&  ###        O@@@&&&&&             O@&&&&&$   ###        $O@@&&&&&  ###    ",
"    $O@@+O&&&&&          o$O@@&&&&&            .o$+@@$&&&&&           $O@@@@&&&&&           $O@@&&&&&              $@@@@&&&&&       ",
"    o$@@@@oo             .o$@@@$&&&&&         ... +@  ooo             o$$@@@o                $@@@$&&&&&             oo@@            ",
"    .oo@@@o             ...  @@@  .                    ..              ooooo                 .o@+                   .oo             ",
"     .                                                  .                ..                   ..                     ..             ",
"     .                                                                    .                   .                       .             "
};
