/* XPM */
static char *_6f127f908634060c249bd5bf23401f6QTm97SYbWNGKOe9h[] = {
/* columns rows colors chars-per-pixel */
"58 63 31 1 ",
"  c None",
". c #E58D43",
"X c #E1A662",
"o c #6B463E",
"O c #FED9AF",
"+ c #DB8A44",
"@ c #631F31",
"# c #621E32",
"$ c #611D32",
"% c #9D8786",
"& c #5D1D32",
"* c #445781",
"= c #C64524",
"- c #8E251D",
"; c #657392",
": c #92A1B9",
"> c #C7CFDD",
", c #131313",
"< c gray24",
"1 c white",
"2 c #0098DC",
"3 c #E69C69",
"4 c #F6CA9F",
"5 c #424C6E",
"6 c #391F21",
"7 c #5D2C28",
"8 c #571C27",
"9 c #2A2F4E",
"0 c #ED7614",
"q c #FFA214",
"w c #FFC825",
/* pixels */
"                                                          ",
"                                                          ",
"                                                          ",
"                                                          ",
"                                                          ",
"                                                          ",
"                                                          ",
"                                                          ",
"                                                          ",
"                                                          ",
"                                                          ",
"                                                          ",
"                                                          ",
"                                                          ",
"                                                          ",
"                                                          ",
"                  .==--X                                  ",
"                 =====--o                                 ",
"                =====--;::>>                              ",
"                ====--;:>>>;:O                            ",
"              +====--;:>>>;>;:                            ",
"               ===- ;:>>::>>>;:                           ",
"              ===-  ;;:;>>,>,:;                           ",
"              ==--  ;:;>,>,>,:;                           ",
"              @=-   ;:;><><><:                            ",
"              #--    ;;;12332                             ",
"              --      ;::4433:                            ",
"             $-      --;:443;:                            ",
"             --   %>>:--===-                              ",
"             -&  *>>>:;--===5                             ",
"                =:>>::;---=:5                             ",
"         ========;:::;;:::>:5                             ",
"       =====----->;;;;::>>>: ;:::                         ",
"      ====------;>>:5;;::>>:;6677:                        ",
"      ===------->;;:85;::>>:566777:                       ",
"      ===------->>:885;;:::55;6777:                       ",
"       ==     --->:8855;;::5559677:                       ",
"        =      -0;;88qq----;59;;77:                       ",
"               -0>::q>--===-655;77:                       ",
"                 >>:q>>>====-65567:                       ",
"                   w>11>>>;;-6666:                        ",
"                   w--111>>>;-666;                        ",
"                   ---: 111>>>:6;                         ",
"                  >-;:    111>>;                          ",
"                  >>:      ;111                           ",
"                 :>::       ;;                            ",
"                 ;::        ;55                           ",
"                >:;         5;;;                          ",
"               >>>:         ;;:::                         ",
"                                                          ",
"                                                          ",
"                                                          ",
"                                                          ",
"                                                          ",
"                                                          ",
"                                                          ",
"                                                          ",
"                                                          ",
"                                                          ",
"                                                          ",
"                                                          ",
"                                                          ",
"                                                          "
};
