/* XPM */
static char *_4ea46074ca14f3dcc7aff7438d1818aqAQ3oVYUHO5KrcXZ[] = {
/* columns rows colors chars-per-pixel */
"56 61 35 1 ",
"  c None",
". c #E58D43",
"X c #E1A662",
"o c #E08D47",
"O c #6B463E",
"+ c #E88D46",
"@ c #E28B45",
"# c #FED9AF",
"$ c #631F31",
"% c #621E32",
"& c #601F31",
"* c #611D32",
"= c #9D8786",
"- c #445781",
"; c #5D1D32",
": c #951799",
"> c #C64524",
", c #8E251D",
"< c #657392",
"1 c #92A1B9",
"2 c #C7CFDD",
"3 c #131313",
"4 c gray24",
"5 c white",
"6 c #0098DC",
"7 c #E69C69",
"8 c #F6CA9F",
"9 c #424C6E",
"0 c #391F21",
"q c #5D2C28",
"w c #571C27",
"e c #2A2F4E",
"r c #ED7614",
"t c #FFA214",
"y c #FFC825",
/* pixels */
"                                                        ",
"                                                        ",
"                                                        ",
"                                                        ",
"                                                        ",
"                                                        ",
"                                                        ",
"                                                        ",
"                                                        ",
"                                                        ",
"                                                        ",
"                                                        ",
"                                                        ",
"                                                        ",
"                    .>>,,X                              ",
"                   o>>>>,,O                             ",
"                  +>>>>,,<1122                          ",
"                  @>>>,,<1222<1#                        ",
"                  >>>,,<1222<2<1                        ",
"                  >>,,<12211222<1                       ",
"                 >>>, <<1<223231<                       ",
"                 >>,, <1<2323231<                       ",
"                 $>,  <1<2424241                        ",
"                 %,,   <<<56776                         ",
"                 &,    ,<1188771                        ",
"                 *, =221,<1887<1                        ",
"                 ,,-2221<,,>>>9                         ",
"                 ,;12211<,,,>19                         ",
"                   <111<<111219                         ",
"                   2<<<<112221:<111                     ",
"                  <2219<<11221<00qq1                    ",
"                  2<<1w9<11221900qqq1                   ",
"                 >221ww9<<11199<0qqq1                   ",
"         >>>    >>,21ww99<<11999e0qq1                   ",
"         >>>>>>>>,r<<wwtt,,,,<9e<<qq1                   ",
"         >>>>>>>,,r211t2,,>>>,099<qq1                   ",
"          >>>,,,,,,221t222>>>>,0990q1                   ",
"            ,,,,,,,,,y255222<<,00001                    ",
"              ,,,,,,,y,,555222<,000<                    ",
"                 ,,,w,,,1 55522210<                     ",
"                    2,<1    55522<                      ",
"                    221      <555                       ",
"                   1211       <<                        ",
"                   <11        <99                       ",
"                  21<         9<<<                      ",
"                 2221         <<111                     ",
"                                                        ",
"                                                        ",
"                                                        ",
"                                                        ",
"                                                        ",
"                                                        ",
"                                                        ",
"                                                        ",
"                                                        ",
"                                                        ",
"                                                        ",
"                                                        ",
"                                                        ",
"                                                        ",
"                                                        "
};
