/* XPM */
static char *_6c8c14fac0d47b1ddfcec5feecf333f1Cy1gxJmMH80X6Q5[] = {
/* columns rows colors chars-per-pixel */
"62 61 34 1 ",
"  c None",
". c #E58D43",
"X c #E1A662",
"o c #E08D47",
"O c #6B463E",
"+ c #E88D46",
"@ c #E38C45",
"# c #E28B45",
"$ c #FED9AF",
"% c #DB8A44",
"& c #631F31",
"* c #621E32",
"= c #601F31",
"- c #611D32",
"; c #9D8786",
": c #C64524",
"> c #8E251D",
", c #657392",
"< c #92A1B9",
"1 c #C7CFDD",
"2 c #131313",
"3 c gray24",
"4 c white",
"5 c #0098DC",
"6 c #E69C69",
"7 c #F6CA9F",
"8 c #424C6E",
"9 c #391F21",
"0 c #5D2C28",
"q c #571C27",
"w c #2A2F4E",
"e c #ED7614",
"r c #FFA214",
"t c #FFC825",
/* pixels */
"                                                              ",
"                                                              ",
"                                                              ",
"                                                              ",
"                                                              ",
"                                                              ",
"                                                              ",
"                                                              ",
"                                                              ",
"                                                              ",
"                                                              ",
"                                                              ",
"                                                              ",
"                      .::>>X                                  ",
"                     o::::>>O                                 ",
"                    +@:::>>,<<11                              ",
"                    #:::>>,<111,<$                            ",
"                    %::>>,<111,1,<                            ",
"                     ::>,<11<<111,<                           ",
"                    :::>,,<,11212<,                           ",
"                    ::>>,<,121212<,                           ",
"                    &:> ,<,131313<                            ",
"                    *>>  ,,,45665                             ",
"                    =>    ,<<7766<                            ",
"                    ->;1 >>,<776,<                            ",
"                    >>111<>>:::>                              ",
"                    ><111<,>>:::8                             ",
"                     ,<<<<,>>>:<8                             ",
"                     1,,<,,<<<1<8,<<<                         ",
"                    ,11<,,<<111<,9900<                        ",
"                   :1,,<8,,<<11<899000<                       ",
"                  ::11<qq8,<<11<8,9000<                       ",
"                 :::>1<qq8,,<<<888w900<                       ",
"                :::>e,,qqrr,,<<,8w,,00<                       ",
"                :::>e1<<r1>>>>>,988,00<                       ",
"               :::>>>11<r111:::>998890<                       ",
"               :::>>>  t144111::>9999<                        ",
"               :::>>   t>>444111>9999,                        ",
"               :::>    >>>>:44411199,                         ",
"                ::     >>><  ,44411,                          ",
"                ::    1>,<    ,8444                           ",
"                 :    11<     ,8<<                            ",
"                     <1<<      ,<<                            ",
"                     <<<        ,,                            ",
"                     <<         ,,                            ",
"                    <,<         ,88                           ",
"                    1<,         8,,,                          ",
"                   111<         ,,<<<                         ",
"                                                              ",
"                                                              ",
"                                                              ",
"                                                              ",
"                                                              ",
"                                                              ",
"                                                              ",
"                                                              ",
"                                                              ",
"                                                              ",
"                                                              ",
"                                                              ",
"                                                              "
};
