/* XPM */
static char *_189d36f7b9247d9cd294fbc92e022cfpsnPBBEm964LZUWX[] = {
/* columns rows colors chars-per-pixel */
"61 70 34 1 ",
"  c None",
". c #E58D43",
"X c #E1A662",
"o c #E08D47",
"O c #6B463E",
"+ c #E88D46",
"@ c #E38C45",
"# c #E28B45",
"$ c #FED9AF",
"% c #DB8A44",
"& c #631F31",
"* c #621E32",
"= c #601F31",
"- c #611D32",
"; c #9D8786",
": c #C64524",
"> c #8E251D",
", c #657392",
"< c #92A1B9",
"1 c #C7CFDD",
"2 c #131313",
"3 c gray24",
"4 c white",
"5 c #0098DC",
"6 c #E69C69",
"7 c #F6CA9F",
"8 c #424C6E",
"9 c #391F21",
"0 c #5D2C28",
"q c #571C27",
"w c #2A2F4E",
"e c #ED7614",
"r c #FFA214",
"t c #FFC825",
/* pixels */
"                                                             ",
"                                                             ",
"                                                             ",
"                                                             ",
"                                                             ",
"                                                             ",
"                                                             ",
"                                                             ",
"                                                             ",
"                                                             ",
"                                                             ",
"                                                             ",
"                                                             ",
"                                                             ",
"                          .::>>X                             ",
"                         o::::>>O                            ",
"                        +@:::>>,<<11                         ",
"                        #:::>>,<111,<$                       ",
"                        %::>>,<111,1,<                       ",
"                         ::>,<11<<111,<                      ",
"                        :::>,,<,11212<,                      ",
"                        ::>>,<,121212<,                      ",
"                        &:> ,<,131313<                       ",
"                        *>>  ,,,45665                        ",
"                        =>   >,<<7766<                       ",
"                        ->;11<>,<776,<                       ",
"                        >>111<,>>:::8                        ",
"                        ><11<<,>>>:<8                        ",
"                         ,<<<,,<<<1<8                        ",
"                        :1,,,,<<111< ,<<<                    ",
"                       :,11<8,,<<11<,9900<                   ",
"                      ::1,,<q8,<<11<899000<                  ",
"                      ::11<qq8,,<<<88,9000<                  ",
"                      ::>1<qq88,,<<888w900<                  ",
"                     ::>e,,qqrr>>>>,8w,,00<                  ",
"                     ::>e1<<r1>>:::>988,00<                  ",
"                     ::>>11<r111::::>98890<                  ",
"                     ::>>>>t144111,,>9999<                   ",
"                     ::>>> t>>444111,>999,                   ",
"                     ::>>  >>><>44411199,                    ",
"                      ::> 1>,<    44411,                     ",
"                      ::  11<     ,8444                      ",
"                       : <1<<      ,<<                       ",
"                         <<<        ,,                       ",
"                         <<         ,,                       ",
"                        <,<         ,88                      ",
"                        1<,         8,,,                     ",
"                       111<         ,,<<<                    ",
"                                                             ",
"                                                             ",
"                                                             ",
"                                                             ",
"                                                             ",
"                                                             ",
"                                                             ",
"                                                             ",
"                                                             ",
"                                                             ",
"                                                             ",
"                                                             ",
"                                                             ",
"                                                             ",
"                                                             ",
"                                                             ",
"                                                             ",
"                                                             ",
"                                                             ",
"                                                             ",
"                                                             ",
"                                                             "
};
